<svg width="800" height="600" viewBox="0 0 800 600" xmlns="http://www.w3.org/2000/svg">
  <defs>
    <linearGradient id="terminalGlow" x1="0%" y1="0%" x2="100%" y2="100%">
      <stop offset="0%" stop-color="#e94560" stop-opacity="0.8"/>
      <stop offset="50%" stop-color="#ff6b7a" stop-opacity="0.4"/>
      <stop offset="100%" stop-color="#e94560" stop-opacity="0.8"/>
    </linearGradient>
    <filter id="glow">
      <feGaussianBlur stdDeviation="3" result="coloredBlur"/>
      <feMerge>
        <feMergeNode in="coloredBlur"/>
        <feMergeNode in="SourceGraphic"/>
      </feMerge>
    </filter>
  </defs>
  
  <!-- Dark terminal background -->
  <rect width="800" height="600" fill="#0f0f23"/>
  
  <!-- CRT scanlines -->
  <g opacity="0.1">
    <line x1="0" y1="0" x2="800" y2="0" stroke="#e94560" stroke-width="2"/>
    <line x1="0" y1="10" x2="800" y2="10" stroke="#e94560" stroke-width="2"/>
    <line x1="0" y1="20" x2="800" y2="20" stroke="#e94560" stroke-width="2"/>
    <line x1="0" y1="30" x2="800" y2="30" stroke="#e94560" stroke-width="2"/>
    <line x1="0" y1="40" x2="800" y2="40" stroke="#e94560" stroke-width="2"/>
    <line x1="0" y1="50" x2="800" y2="50" stroke="#e94560" stroke-width="2"/>
    <line x1="0" y1="60" x2="800" y2="60" stroke="#e94560" stroke-width="2"/>
    <line x1="0" y1="70" x2="800" y2="70" stroke="#e94560" stroke-width="2"/>
    <line x1="0" y1="80" x2="800" y2="80" stroke="#e94560" stroke-width="2"/>
    <line x1="0" y1="90" x2="800" y2="90" stroke="#e94560" stroke-width="2"/>
    <line x1="0" y1="100" x2="800" y2="100" stroke="#e94560" stroke-width="2"/>
    <line x1="0" y1="110" x2="800" y2="110" stroke="#e94560" stroke-width="2"/>
    <line x1="0" y1="120" x2="800" y2="120" stroke="#e94560" stroke-width="2"/>
    <line x1="0" y1="130" x2="800" y2="130" stroke="#e94560" stroke-width="2"/>
    <line x1="0" y1="140" x2="800" y2="140" stroke="#e94560" stroke-width="2"/>
    <line x1="0" y1="150" x2="800" y2="150" stroke="#e94560" stroke-width="2"/>
    <line x1="0" y1="160" x2="800" y2="160" stroke="#e94560" stroke-width="2"/>
    <line x1="0" y1="170" x2="800" y2="170" stroke="#e94560" stroke-width="2"/>
    <line x1="0" y1="180" x2="800" y2="180" stroke="#e94560" stroke-width="2"/>
    <line x1="0" y1="190" x2="800" y2="190" stroke="#e94560" stroke-width="2"/>
    <line x1="0" y1="200" x2="800" y2="200" stroke="#e94560" stroke-width="2"/>
    <line x1="0" y1="210" x2="800" y2="210" stroke="#e94560" stroke-width="2"/>
    <line x1="0" y1="220" x2="800" y2="220" stroke="#e94560" stroke-width="2"/>
    <line x1="0" y1="230" x2="800" y2="230" stroke="#e94560" stroke-width="2"/>
    <line x1="0" y1="240" x2="800" y2="240" stroke="#e94560" stroke-width="2"/>
    <line x1="0" y1="250" x2="800" y2="250" stroke="#e94560" stroke-width="2"/>
    <line x1="0" y1="260" x2="800" y2="260" stroke="#e94560" stroke-width="2"/>
    <line x1="0" y1="270" x2="800" y2="270" stroke="#e94560" stroke-width="2"/>
    <line x1="0" y1="280" x2="800" y2="280" stroke="#e94560" stroke-width="2"/>
    <line x1="0" y1="290" x2="800" y2="290" stroke="#e94560" stroke-width="2"/>
    <line x1="0" y1="300" x2="800" y2="300" stroke="#e94560" stroke-width="2"/>
    <line x1="0" y1="310" x2="800" y2="310" stroke="#e94560" stroke-width="2"/>
    <line x1="0" y1="320" x2="800" y2="320" stroke="#e94560" stroke-width="2"/>
    <line x1="0" y1="330" x2="800" y2="330" stroke="#e94560" stroke-width="2"/>
    <line x1="0" y1="340" x2="800" y2="340" stroke="#e94560" stroke-width="2"/>
    <line x1="0" y1="350" x2="800" y2="350" stroke="#e94560" stroke-width="2"/>
    <line x1="0" y1="360" x2="800" y2="360" stroke="#e94560" stroke-width="2"/>
    <line x1="0" y1="370" x2="800" y2="370" stroke="#e94560" stroke-width="2"/>
    <line x1="0" y1="380" x2="800" y2="380" stroke="#e94560" stroke-width="2"/>
    <line x1="0" y1="390" x2="800" y2="390" stroke="#e94560" stroke-width="2"/>
    <line x1="0" y1="400" x2="800" y2="400" stroke="#e94560" stroke-width="2"/>
    <line x1="0" y1="410" x2="800" y2="410" stroke="#e94560" stroke-width="2"/>
    <line x1="0" y1="420" x2="800" y2="420" stroke="#e94560" stroke-width="2"/>
    <line x1="0" y1="430" x2="800" y2="430" stroke="#e94560" stroke-width="2"/>
    <line x1="0" y1="440" x2="800" y2="440" stroke="#e94560" stroke-width="2"/>
    <line x1="0" y1="450" x2="800" y2="450" stroke="#e94560" stroke-width="2"/>
    <line x1="0" y1="460" x2="800" y2="460" stroke="#e94560" stroke-width="2"/>
    <line x1="0" y1="470" x2="800" y2="470" stroke="#e94560" stroke-width="2"/>
    <line x1="0" y1="480" x2="800" y2="480" stroke="#e94560" stroke-width="2"/>
    <line x1="0" y1="490" x2="800" y2="490" stroke="#e94560" stroke-width="2"/>
    <line x1="0" y1="500" x2="800" y2="500" stroke="#e94560" stroke-width="2"/>
    <line x1="0" y1="510" x2="800" y2="510" stroke="#e94560" stroke-width="2"/>
    <line x1="0" y1="520" x2="800" y2="520" stroke="#e94560" stroke-width="2"/>
    <line x1="0" y1="530" x2="800" y2="530" stroke="#e94560" stroke-width="2"/>
    <line x1="0" y1="540" x2="800" y2="540" stroke="#e94560" stroke-width="2"/>
    <line x1="0" y1="550" x2="800" y2="550" stroke="#e94560" stroke-width="2"/>
    <line x1="0" y1="560" x2="800" y2="560" stroke="#e94560" stroke-width="2"/>
    <line x1="0" y1="570" x2="800" y2="570" stroke="#e94560" stroke-width="2"/>
    <line x1="0" y1="580" x2="800" y2="580" stroke="#e94560" stroke-width="2"/>
    <line x1="0" y1="590" x2="800" y2="590" stroke="#e94560" stroke-width="2"/>
    <line x1="0" y1="600" x2="800" y2="600" stroke="#e94560" stroke-width="2"/>
  </g>
  
  <!-- Terminal border -->
  <rect x="50" y="100" width="700" height="400" fill="none" stroke="#e94560" stroke-width="4" filter="url(#glow)" opacity="0.8"/>
  
  <!-- Inner terminal screen -->
  <rect x="60" y="110" width="680" height="380" fill="#0a0a0a" opacity="0.9"/>
  
  <!-- IBT2 Title -->
  <text x="400" y="220" text-anchor="middle" font-family="Courier New, monospace" font-size="72" font-weight="bold" fill="#e94560" filter="url(#glow)">IBT2</text>
  
  <!-- Subtitle -->
  <text x="400" y="270" text-anchor="middle" font-family="Courier New, monospace" font-size="20" fill="#ff6b7a" opacity="0.9">IMAGINE BEING TRAPPED</text>
  
  <!-- Terminal prompt -->
  <text x="100" y="350" font-family="Courier New, monospace" font-size="16" fill="#e94560" opacity="0.8">&gt; INITIALIZING TERROR PROTOCOLS...</text>
  <text x="100" y="380" font-family="Courier New, monospace" font-size="16" fill="#e94560" opacity="0.8">&gt; SANITY LEVEL: CRITICAL</text>
  <text x="100" y="410" font-family="Courier New, monospace" font-size="16" fill="#e94560" opacity="0.8">&gt; ENTITIES: ACTIVE</text>
  
  <!-- Blinking cursor -->
  <rect x="340" y="425" width="12" height="20" fill="#e94560" filter="url(#glow)">
    <animate attributeName="opacity" values="0;1;0" dur="1s" repeatCount="indefinite"/>
  </rect>
  
  <!-- Warning symbol -->
  <text x="400" y="550" text-anchor="middle" font-family="Courier New, monospace" font-size="14" fill="#ff6b7a" opacity="0.7">⚠️ THE DARKNESS SEES YOU...</text>
  
  <!-- Corner decorations -->
  <g stroke="#e94560" stroke-width="2" opacity="0.5">
    <line x1="40" y1="80" x2="80" y2="80"/>
    <line x1="40" y1="80" x2="40" y2="120"/>
    <line x1="760" y1="80" x2="720" y2="80"/>
    <line x1="760" y1="80" x2="760" y2="120"/>
    <line x1="40" y1="520" x2="80" y2="520"/>
    <line x1="40" y1="520" x2="40" y2="480"/>
    <line x1="760" y1="520" x2="720" y2="520"/>
    <line x1="760" y1="520" x2="760" y2="480"/>
  </g>
</svg>
